<svg xmlns="http://www.w3.org/2000/svg" width="680" height="300" viewBox="0 0 680 300">
<defs>
  <clipPath id="bc">
    <rect x="30" y="20" width="240" height="240" rx="44"/>
  </clipPath>
</defs>

<!-- Background -->
<rect x="0" y="0" width="680" height="300" rx="14" fill="#07090d"/>

<!-- Badge -->
<rect x="30" y="20" width="240" height="240" rx="44" fill="#0b0f1c" stroke="#00e5b022" stroke-width="1.5"/>
<rect x="32" y="22" width="236" height="236" rx="42" fill="none" stroke="#00e5b0" stroke-width="1" opacity="0.07"/>

<!-- Scan lines -->
<g clip-path="url(#bc)" opacity="0.045" stroke="#00e5b0" stroke-width="0.5">
  <line x1="30" y1="110" x2="270" y2="110"/>
  <line x1="30" y1="145" x2="270" y2="145"/>
  <line x1="30" y1="180" x2="270" y2="180"/>
  <line x1="30" y1="215" x2="270" y2="215"/>
</g>

<!-- AR Corner brackets -->
<g fill="none" stroke="#00e5b0" stroke-width="1.5" stroke-linecap="round" opacity="0.5">
  <path d="M52,46 L52,30 L68,30"/>
  <path d="M248,30 L264,30 L264,46"/>
  <path d="M52,234 L52,250 L68,250"/>
  <path d="M248,250 L264,250 L264,234"/>
</g>

<!-- Hand (clipped) -->
<g clip-path="url(#bc)">
  <rect x="126" y="82" width="23" height="98" rx="11.5" fill="rgba(0,229,176,0.07)" stroke="#00e5b0" stroke-width="2"/>
  <rect x="157" y="68" width="23" height="112" rx="11.5" fill="rgba(0,229,176,0.07)" stroke="#00e5b0" stroke-width="2"/>
  <rect x="108" y="170" width="106" height="64" rx="22" fill="rgba(0,229,176,0.07)" stroke="#00e5b0" stroke-width="2"/>
  <rect x="184" y="157" width="19" height="25" rx="9.5" fill="rgba(0,229,176,0.07)" stroke="#00e5b0" stroke-width="1.5"/>
  <rect x="204" y="165" width="14" height="20" rx="7" fill="rgba(0,229,176,0.07)" stroke="#00e5b0" stroke-width="1.5"/>
  <path d="M 108,192 C 84,182 74,163 80,146 C 84,133 99,128 109,144" fill="none" stroke="#00e5b0" stroke-width="2" stroke-linecap="round"/>
  <circle cx="137" cy="72" r="19" fill="none" stroke="#00e5b0" stroke-width="1" opacity="0.25"/>
  <circle cx="137" cy="72" r="12" fill="none" stroke="#00e5b0" stroke-width="1.5" opacity="0.52"/>
  <circle cx="137" cy="72" r="5" fill="#00e5b0"/>
  <circle cx="155" cy="62" r="3.6" fill="#00e5b0" opacity="0.5"/>
  <circle cx="172" cy="54" r="2.8" fill="#00e5b0" opacity="0.3"/>
  <circle cx="188" cy="47" r="2.2" fill="#00e5b0" opacity="0.17"/>
  <circle cx="203" cy="41" r="1.7" fill="#a855f7" opacity="0.35"/>
</g>

<!-- Separator -->
<line x1="292" y1="40" x2="292" y2="260" stroke="#00e5b0" stroke-width="0.5" opacity="0.1"/>

<!-- Wordmark -->
<text x="313" y="148"
      font-family="system-ui,-apple-system,BlinkMacSystemFont,'Segoe UI',sans-serif"
      font-size="54" font-weight="200" letter-spacing="-1.5" fill="#cce4f5">Gesture<tspan fill="#00e5b0" font-weight="700">Clip</tspan></text>
<line x1="313" y1="160" x2="425" y2="160" stroke="#00e5b0" stroke-width="1" opacity="0.22"/>
<circle cx="309" cy="174" r="3" fill="#a855f7" opacity="0.8"/>
<text x="318" y="178"
      font-family="'Courier New','Andale Mono',monospace"
      font-size="11.5" letter-spacing="0.32em" fill="#00e5b0" opacity="0.55">AR GESTURE CONTROL</text>
<text x="313" y="202"
      font-family="system-ui,-apple-system,sans-serif"
      font-size="12" letter-spacing="0.12em" fill="#cce4f5" opacity="0.22">Windows  ·  macOS  ·  Linux</text>
<rect x="313" y="218" width="148" height="24" rx="12" fill="rgba(0,229,176,0.05)" stroke="#00e5b0" stroke-width="0.5" opacity="0.5"/>
<text x="387" y="234" text-anchor="middle"
      font-family="'Courier New','Andale Mono',monospace"
      font-size="10.5" letter-spacing="0.18em" fill="#00e5b0" opacity="0.55">Ctrl + Shift + G</text>

<!-- Decorative right side -->
<circle cx="596" cy="115" r="18" fill="none" stroke="#00e5b016" stroke-width="1"/>
<circle cx="596" cy="115" r="11" fill="none" stroke="#00e5b030" stroke-width="1"/>
<circle cx="596" cy="115" r="5" fill="#00e5b0" opacity="0.35"/>
<circle cx="614" cy="105" r="3.2" fill="#00e5b0" opacity="0.2"/>
<circle cx="630" cy="96" r="2.3" fill="#00e5b0" opacity="0.1"/>
<rect x="560" y="150" width="78" height="36" rx="8" fill="rgba(11,15,30,0.9)" stroke="#00e5b018" stroke-width="1"/>
<line x1="572" y1="162" x2="625" y2="162" stroke="#00e5b0" stroke-width="0.5" opacity="0.22"/>
<line x1="572" y1="172" x2="610" y2="172" stroke="#00e5b0" stroke-width="0.5" opacity="0.14"/>
<rect x="570" y="195" width="72" height="34" rx="8" fill="rgba(11,15,30,0.9)" stroke="#a855f718" stroke-width="1"/>
<line x1="581" y1="207" x2="629" y2="207" stroke="#a855f7" stroke-width="0.5" opacity="0.2"/>
<line x1="581" y1="216" x2="616" y2="216" stroke="#a855f7" stroke-width="0.5" opacity="0.12"/>
<circle cx="550" cy="168" r="5" fill="none" stroke="#00e5b0" stroke-width="1.2" opacity="0.5"/>
<circle cx="550" cy="168" r="2" fill="#00e5b0" opacity="0.6"/>
</svg>
